<svg width="18" height="18" viewBox="0 0 18 18" fill="none" xmlns="http://www.w3.org/2000/svg">
<path d="M8.99996 0.666504C4.41663 0.666504 0.666626 4.4165 0.666626 8.99984C0.666626 13.5832 4.41663 17.3332 8.99996 17.3332C13.5833 17.3332 17.3333 13.5832 17.3333 8.99984C17.3333 4.4165 13.5833 0.666504 8.99996 0.666504ZM8.99996 15.6665C5.32496 15.6665 2.33329 12.6748 2.33329 8.99984C2.33329 5.32484 5.32496 2.33317 8.99996 2.33317C12.675 2.33317 15.6666 5.32484 15.6666 8.99984C15.6666 12.6748 12.675 15.6665 8.99996 15.6665ZM9.41663 4.83317H8.16663V9.83317L12.5 12.4998L13.1666 11.4165L9.41663 9.1665V4.83317Z" fill="black"/>
</svg>
