<svg width="14" height="14" viewBox="0 0 14 14" fill="none" xmlns="http://www.w3.org/2000/svg">
<path d="M7.00002 1.16666C4.74252 1.16666 2.91669 2.99249 2.91669 5.24999C2.91669 8.31249 7.00002 12.8333 7.00002 12.8333C7.00002 12.8333 11.0834 8.31249 11.0834 5.24999C11.0834 2.99249 9.25752 1.16666 7.00002 1.16666ZM4.08335 5.24999C4.08335 3.63999 5.39002 2.33332 7.00002 2.33332C8.61002 2.33332 9.91669 3.63999 9.91669 5.24999C9.91669 6.92999 8.23669 9.44416 7.00002 11.0133C5.78669 9.45582 4.08335 6.91249 4.08335 5.24999Z" fill="black"/>
<path d="M7.00002 6.70832C7.80544 6.70832 8.45835 6.05541 8.45835 5.24999C8.45835 4.44457 7.80544 3.79166 7.00002 3.79166C6.1946 3.79166 5.54169 4.44457 5.54169 5.24999C5.54169 6.05541 6.1946 6.70832 7.00002 6.70832Z" fill="black"/>
</svg>
