<svg width="20" height="20" viewBox="0 0 20 20" fill="none" xmlns="http://www.w3.org/2000/svg">
<path d="M1.60098 7H18.401M1.60098 13H18.401M1.00098 10C1.00098 11.1819 1.23377 12.3522 1.68606 13.4442C2.13835 14.5361 2.80129 15.5282 3.63702 16.364C4.47274 17.1997 5.4649 17.8626 6.55683 18.3149C7.64876 18.7672 8.81908 19 10.001 19C11.1829 19 12.3532 18.7672 13.4451 18.3149C14.5371 17.8626 15.5292 17.1997 16.3649 16.364C17.2007 15.5282 17.8636 14.5361 18.3159 13.4442C18.7682 12.3522 19.001 11.1819 19.001 10C19.001 7.61305 18.0528 5.32387 16.3649 3.63604C14.6771 1.94821 12.3879 1 10.001 1C7.61403 1 5.32484 1.94821 3.63702 3.63604C1.94919 5.32387 1.00098 7.61305 1.00098 10Z" stroke="black" stroke-width="2" stroke-linecap="round" stroke-linejoin="round"/>
<path d="M9.50101 1C7.81635 3.69961 6.92322 6.81787 6.92322 10C6.92322 13.1821 7.81635 16.3004 9.50101 19M10.501 1C12.1857 3.69961 13.0788 6.81787 13.0788 10C13.0788 13.1821 12.1857 16.3004 10.501 19" stroke="black" stroke-width="2" stroke-linecap="round" stroke-linejoin="round"/>
</svg>
